<svg width="29" height="28" viewBox="0 0 29 28" fill="none" xmlns="http://www.w3.org/2000/svg">
<g id="Group 415">
<g id="Group">
<path id="Vector" d="M6.51349 24.5308C6.51349 25.4517 6.90352 26.3355 7.60356 26.9866C8.30361 27.6378 9.25367 28.0006 10.2437 28.0006C11.2338 28.0006 12.1839 27.6378 12.8839 26.9866C13.584 26.3355 13.974 25.4517 13.974 24.5308C13.974 23.6099 13.584 22.7262 12.8839 22.075C12.1839 21.4238 11.2338 21.061 10.2437 21.061C9.25367 21.061 8.30361 21.4238 7.60356 22.075C6.90352 22.7262 6.51349 23.6099 6.51349 24.5308ZM8.92365 23.3029C9.27367 22.9773 9.74371 22.7913 10.2437 22.7913C10.7438 22.7913 11.2138 22.9773 11.5638 23.3029C11.9139 23.6285 12.1139 24.0657 12.1139 24.5308C12.1139 24.9959 11.9139 25.4331 11.5638 25.7587C11.2138 26.0843 10.7438 26.2703 10.2437 26.2703C9.74371 26.2703 9.27367 26.0843 8.92365 25.7587C8.57363 25.4331 8.37361 24.9959 8.37361 24.5308C8.37361 24.0657 8.57363 23.6285 8.92365 23.3029Z" fill="white"/>
<path id="Vector_2" d="M25.797 20.856C25.9671 20.7258 26.0771 20.549 26.1171 20.3444L28.9172 6.45597C28.9473 6.33504 28.9372 6.20481 28.9072 6.07457C28.8772 5.95364 28.8072 5.83271 28.7172 5.73969C28.6272 5.63736 28.5172 5.56295 28.3972 5.50713C28.2772 5.45132 28.1372 5.42341 27.9972 5.42341H23.5569C23.0369 5.42341 22.6268 5.81411 22.6268 6.28853C22.6268 6.77225 23.0469 7.15364 23.5569 7.15364H26.8771L24.4269 19.3118H9.17592L6.72575 7.15364H10.786C11.3061 7.15364 11.7161 6.76295 11.7161 6.28853C11.7161 5.80481 11.2961 5.42341 10.786 5.42341H6.33573L5.57568 2.6048C5.52567 2.41876 5.40566 2.25131 5.24565 2.13038C5.08564 2.00945 4.87563 1.94434 4.67562 1.94434H1.86543C1.61541 1.94434 1.38539 2.03736 1.20538 2.1955C1.02537 2.35364 0.935364 2.57689 0.935364 2.80945C0.935364 3.04201 1.03537 3.25597 1.20538 3.42341C1.37539 3.58155 1.61541 3.67457 1.86543 3.67457H3.93557L4.68562 6.46527L7.48581 20.3351C7.52581 20.5304 7.63582 20.7165 7.80583 20.8467C7.97584 20.9769 8.18585 21.0513 8.40587 21.0513H25.207C25.427 21.0513 25.637 20.9769 25.807 20.8467L25.797 20.856Z" fill="white"/>
<path id="Vector_3" d="M23.3687 21.061C22.3787 21.061 21.4286 21.4238 20.7286 22.075C20.0285 22.7262 19.6385 23.6099 19.6385 24.5308C19.6385 25.4517 20.0285 26.3355 20.7286 26.9866C21.4286 27.6378 22.3787 28.0006 23.3687 28.0006C24.3588 28.0006 25.3089 27.6378 26.0089 26.9866C26.709 26.3355 27.099 25.4517 27.099 24.5308C27.099 23.6099 26.709 22.7262 26.0089 22.075C25.3089 21.4238 24.3588 21.061 23.3687 21.061ZM24.6888 25.7587C24.3388 26.0843 23.8688 26.2703 23.3687 26.2703C22.8687 26.2703 22.3987 26.0843 22.0487 25.7587C21.6986 25.4331 21.4986 24.9959 21.4986 24.5308C21.4986 24.0657 21.6986 23.6285 22.0487 23.3029C22.3987 22.9773 22.8687 22.7913 23.3687 22.7913C23.8688 22.7913 24.3388 22.9773 24.6888 23.3029C25.0389 23.6285 25.2389 24.0657 25.2389 24.5308C25.2389 24.9959 25.0389 25.4331 24.6888 25.7587Z" fill="white"/>
</g>
<path id="Vector_4" d="M17.4023 12.3251L20.3325 9.30185C20.5025 9.1251 20.3725 8.83673 20.1125 8.83673H18.1824V0.929745C18.1824 0.418117 17.7323 -0.000488281 17.1823 -0.000488281C16.6323 -0.000488281 16.1822 0.418117 16.1822 0.929745V8.83673H14.2521C13.9921 8.83673 13.8521 9.1251 14.0321 9.30185L16.9623 12.3251C17.0823 12.446 17.2923 12.446 17.4023 12.3251Z" fill="white"/>
</g>
</svg>
