<svg width="596" height="96" viewBox="0 0 596 144" fill="none" xmlns="http://www.w3.org/2000/svg">
<g filter="url(#filter0_d_0_640)">
<path fill-rule="evenodd" clip-rule="evenodd" d="M71.8928 39.6932C69.1906 39.3234 66.6449 36.7776 66.2751 34.0754C65.9409 31.6364 64.8387 29.2897 62.9614 27.4195C58.389 22.8472 50.958 22.8614 46.3643 27.4551C41.7706 32.0488 41.7563 39.4798 46.3287 44.0522C48.1989 45.9224 50.5527 47.0246 52.9917 47.3659C55.6939 47.7357 58.2397 50.2815 58.6094 52.9836C58.9437 55.4227 60.0459 57.7694 61.9232 59.6396C66.4956 64.2119 73.9266 64.1977 78.5203 59.604C83.114 55.0103 83.1282 47.5793 78.5559 43.0069C76.6857 41.1367 74.3319 40.0345 71.8928 39.6932Z" fill="#E396A1"/>
<path fill-rule="evenodd" clip-rule="evenodd" d="M90.8113 96.6306C88.1091 96.2609 85.5633 93.7151 85.1936 91.0129C84.8594 88.5739 83.7571 86.2272 81.8798 84.357C77.3075 79.7847 69.8764 79.7989 65.2827 84.3926C60.689 88.9863 60.6748 96.4173 65.2472 100.99C67.1174 102.86 69.4711 103.962 71.9102 104.303C74.6124 104.673 77.1581 107.219 77.5279 109.921C77.8621 112.36 78.9643 114.707 80.8416 116.577C85.414 121.149 92.845 121.135 97.4387 116.541C102.032 111.948 102.047 104.517 97.4743 99.9444C95.6041 98.0742 93.2504 96.972 90.8113 96.6306Z" fill="#B2CE7C"/>
<path fill-rule="evenodd" clip-rule="evenodd" d="M104.3 72.1829C104.669 69.4807 107.215 66.9349 109.917 66.5652C112.356 66.2309 114.703 65.1287 116.58 63.2514C121.153 58.679 121.138 51.248 116.545 46.6543C111.951 42.0606 104.52 42.0464 99.9476 46.6188C98.0774 48.489 96.9752 50.8427 96.6339 53.2747C96.2641 55.9768 93.7183 58.5226 91.0162 58.8924C88.5771 59.2266 86.2304 60.3288 84.3531 62.2061C79.7807 66.7785 79.795 74.2095 84.3887 78.8032C88.9824 83.3969 96.4134 83.4112 100.986 78.8388C102.856 76.9686 103.958 74.6148 104.3 72.1829Z" fill="#F2C56B"/>
<path fill-rule="evenodd" clip-rule="evenodd" d="M47.3659 91.1145C47.7357 88.4123 50.2815 85.8666 52.9836 85.4968C55.4227 85.1626 57.7694 84.0604 59.6467 82.1831C64.219 77.6107 64.2048 70.1797 59.6111 65.5859C55.0174 60.9922 47.5864 60.978 43.014 65.5504C41.1438 67.4206 40.0416 69.7743 39.7003 72.2063C39.3305 74.9085 36.7847 77.4543 34.0826 77.824C31.6435 78.1582 29.2968 79.2604 27.4195 81.1377C22.8472 85.7101 22.8614 93.1412 27.4551 97.7349C32.0488 102.329 39.4798 102.343 44.0522 97.7704C45.9224 95.9002 47.0246 93.5465 47.3659 91.1145Z" fill="#8ECCED"/>
<path fill-rule="evenodd" clip-rule="evenodd" d="M186.875 42.9157C185.78 42.8232 184.677 42.7734 183.561 42.7734C162.207 42.7734 144.892 60.0603 144.892 81.3863C144.892 102.712 162.207 119.999 183.561 119.999C204.915 119.999 221.633 103.302 222.216 82.4885H206.735C206.16 94.7692 196.005 104.554 183.561 104.554C171.117 104.554 160.358 94.179 160.358 81.3863C160.358 68.5936 170.747 58.2186 183.561 58.2186C184.684 58.2186 185.794 58.2968 186.875 58.4532V42.9157Z" fill="#797271"/>
<path fill-rule="evenodd" clip-rule="evenodd" d="M272.24 104.312C283.39 104.312 292.435 95.2806 292.435 84.1448C292.435 73.0089 283.397 63.9779 272.24 63.9779C261.083 63.9779 252.045 73.0089 252.045 84.1448C252.045 95.2806 261.083 104.312 272.24 104.312ZM236.344 84.1448C236.344 103.949 252.414 119.999 272.247 119.999C292.079 119.999 308.15 103.949 308.15 84.1448C308.15 64.3406 292.079 48.291 272.247 48.291C252.414 48.291 236.344 64.3406 236.344 84.1448Z" fill="#797271"/>
<path fill-rule="evenodd" clip-rule="evenodd" d="M358.061 104.383C348.575 102.385 341.492 94.4915 341.492 85.0694L341.243 24H324.675L324.924 85.0694C324.924 103.018 339.38 117.83 358.061 119.999V104.383Z" fill="#797271"/>
<path fill-rule="evenodd" clip-rule="evenodd" d="M489.991 104.383C481.294 102.385 474.802 94.4915 474.802 85.0694L474.553 24H459.364L459.613 85.0694C459.613 103.018 472.868 117.83 489.991 119.999V104.383Z" fill="#797271"/>
<path fill-rule="evenodd" clip-rule="evenodd" d="M428.484 112.939V117.241H442.294V75.8691H427.19V84.6939C427.19 95.6591 418.493 104.555 407.77 104.555C397.047 104.555 388.35 95.6662 388.35 84.6939V75.8691H373.246V84.6939C373.246 104.192 388.698 120 407.763 120C415.535 120 422.703 117.376 428.477 112.939H428.484Z" fill="#797271"/>
<path fill-rule="evenodd" clip-rule="evenodd" d="M557.739 112.939V117.241H571.548V75.8691H556.444V84.6939C556.444 95.6591 547.748 104.555 537.024 104.555C526.301 104.555 517.611 95.6662 517.611 84.6939V75.8691H502.507V84.6939C502.507 104.192 517.967 120 537.024 120C544.797 120 551.964 117.376 557.739 112.939Z" fill="#797271"/>
</g>
<defs>
<filter id="filter0_d_0_640" x="0" y="0" width="595.548" height="144" filterUnits="userSpaceOnUse" color-interpolation-filters="sRGB">
<feFlood flood-opacity="0" result="BackgroundImageFix"/>
<feColorMatrix in="SourceAlpha" type="matrix" values="0 0 0 0 0 0 0 0 0 0 0 0 0 0 0 0 0 0 127 0" result="hardAlpha"/>
<feOffset/>
<feGaussianBlur stdDeviation="12"/>
<feComposite in2="hardAlpha" operator="out"/>
<feColorMatrix type="matrix" values="0 0 0 0 1 0 0 0 0 1 0 0 0 0 1 0 0 0 0.4 0"/>
<feBlend mode="normal" in2="BackgroundImageFix" result="effect1_dropShadow_0_640"/>
<feBlend mode="normal" in="SourceGraphic" in2="effect1_dropShadow_0_640" result="shape"/>
</filter>
</defs>
</svg>
