<svg width="351" height="96" viewBox="0 0 351 96" fill="none" xmlns="http://www.w3.org/2000/svg">
<g clip-path="url(#clip0_0_531)">
<path d="M72.7277 27.477V94.3039H63.8709V82.8551C60.1238 87.265 55.8658 90.4876 51.1819 92.7774C46.498 94.9823 41.3884 96.0848 35.7677 96.0848C25.889 96.0848 17.4581 92.6926 10.3897 85.8233C3.40647 78.9541 -0.085144 70.6431 -0.085144 60.8056C-0.085144 50.9682 3.40647 42.9965 10.4748 36.1272C17.5432 29.258 26.0593 25.8657 35.938 25.8657C41.6438 25.8657 46.8387 27.053 51.5225 29.3428C56.2064 31.7173 60.209 35.1943 63.7858 39.8587V27.5618H72.6425L72.7277 27.477ZM36.8748 34.0919C31.8503 34.0919 27.2516 35.2792 22.9935 37.6537C18.7355 40.0283 15.4142 43.3357 12.8594 47.576C10.3897 51.8162 9.11227 56.3109 9.11227 61.0601C9.11227 65.8092 10.3897 70.2191 12.8594 74.5442C15.4142 78.8692 18.7355 82.1767 22.9935 84.5512C27.2516 86.9258 31.8503 88.1131 36.7045 88.1131C41.5587 88.1131 46.2425 86.9258 50.6709 84.5512C55.0993 82.1767 58.5058 78.9541 60.8051 74.8834C63.1896 70.8127 64.3819 66.318 64.3819 61.2297C64.3819 53.5124 61.7419 47.0671 56.3767 41.8092C51.0116 36.636 44.5393 34.0071 36.7045 34.0071L36.8748 34.0919Z" fill="white"/>
<path d="M96.147 0C98.1909 0 99.9793 0.678445 101.427 2.12014C102.875 3.47703 103.641 5.17314 103.641 7.12367C103.641 9.0742 102.875 10.6855 101.427 12.1272C99.9793 13.4841 98.1909 14.2473 96.147 14.2473C94.1031 14.2473 92.3999 13.5689 90.9522 12.1272C89.5044 10.7703 88.738 9.0742 88.738 7.12367C88.738 5.17314 89.5044 3.47703 90.9522 2.12014C92.3999 0.763251 94.1031 0 96.147 0ZM91.6335 27.477H100.661V94.3039H91.6335V27.477Z" fill="white"/>
<path d="M121.184 27.4772H130.382V37.2299C133.107 33.4136 136.002 30.5302 139.068 28.5797C142.134 26.714 145.285 25.6963 148.606 25.6963C151.076 25.6963 153.716 26.4595 156.611 27.986L151.928 35.1945C150.054 34.4313 148.436 34.0072 147.159 34.0072C144.178 34.0072 141.282 35.1945 138.472 37.5691C135.662 39.9436 133.533 43.5903 132.085 48.509C130.978 52.3253 130.382 60.0426 130.382 71.5761V94.1345H121.184V27.4772Z" fill="white"/>
<path d="M168.108 1.69629H177.135V94.3041H168.108V1.69629Z" fill="white"/>
<path d="M192.8 27.285H201.827V58.4935C201.827 66.126 202.253 71.3839 203.104 74.1825C204.382 78.2532 206.852 81.4758 210.428 83.8504C214.09 86.2249 218.348 87.4122 223.373 87.4122C228.397 87.4122 232.655 86.2249 236.147 83.9352C239.639 81.6454 242.023 78.5924 243.386 74.7762C244.323 72.232 244.748 66.7196 244.748 58.4087V27.2002H253.946V60.02C253.946 69.2638 252.839 76.1331 250.539 80.7974C248.325 85.4617 244.919 89.1083 240.405 91.7373C235.892 94.3663 230.186 95.7232 223.458 95.7232C216.73 95.7232 210.939 94.3663 206.426 91.7373C201.827 89.1083 198.421 85.3769 196.206 80.7126C193.992 75.9634 192.8 68.8398 192.8 59.3415V27.2002V27.285Z" fill="white"/>
<path d="M269.109 27.4771H278.648L302.067 76.1555L325.231 27.4771H334.854L302.833 94.3039H301.13L268.939 27.4771H269.109Z" fill="white"/>
<path d="M342.689 80.8198C344.903 80.8198 346.776 81.5831 348.309 83.0248C349.842 84.4665 350.609 86.3322 350.609 88.4523C350.609 90.5725 349.842 92.3534 348.309 93.7951C346.776 95.3216 344.903 96 342.689 96C340.475 96 338.601 95.2368 337.068 93.7951C335.535 92.2686 334.769 90.4877 334.769 88.4523C334.769 86.417 335.535 84.5513 337.068 83.0248C338.601 81.5831 340.475 80.8198 342.689 80.8198Z" fill="white"/>
</g>
<defs>
<clipPath id="clip0_0_531">
<rect width="350.609" height="96" fill="white"/>
</clipPath>
</defs>
</svg>
