<svg width="32" height="33" viewBox="0 0 32 33" fill="none" xmlns="http://www.w3.org/2000/svg">
<g clip-path="url(#clip0_2013_163)">
<path fill-rule="evenodd" clip-rule="evenodd" d="M28.5661 22.671C25.2071 26.5623 17.7095 31.2831 16 32.007C14.3645 32.6996 14.5271 31.6528 14.5967 31.2043L14.6054 31.1473C14.6354 30.9864 14.7104 30.5289 14.8304 29.7748C14.8904 29.3525 14.9503 28.719 14.7854 28.3118C14.6054 27.8594 13.9007 27.6331 13.3758 27.5125C5.68323 26.5019 0 21.0874 0 14.6321C0 7.43784 7.16776 1.5708 16 1.5708C24.8173 1.5708 32 7.43784 32 14.6321C32 17.5129 30.8754 20.107 28.5661 22.671ZM26.4267 18.5387H21.9282C21.7632 18.5387 21.6283 18.403 21.6283 18.2371V18.222V11.2087C21.6283 11.0428 21.7632 10.9071 21.9282 10.9071H26.4267C26.5917 10.9071 26.7267 11.0428 26.7267 11.2087V12.355C26.7267 12.5209 26.5917 12.6566 26.4267 12.6566H23.3677V13.8481H26.4267C26.5917 13.8481 26.7267 13.9839 26.7267 14.1498V15.296C26.7267 15.4619 26.5917 15.5977 26.4267 15.5977H23.3677V16.7892H26.4267C26.5917 16.7892 26.7267 16.9249 26.7267 17.0908V18.2371C26.7267 18.403 26.5917 18.5387 26.4267 18.5387ZM5.29836 18.5387H5.31336H9.79696C9.9619 18.5387 10.0969 18.403 10.0969 18.2371V17.0908C10.0969 16.9249 9.9619 16.7892 9.79696 16.7892H6.73792V11.2087C6.73792 11.0428 6.60296 10.9071 6.43801 10.9071H5.29836C5.13341 10.9071 4.99845 11.0428 4.99845 11.2087V18.222V18.2371C4.99845 18.403 5.13341 18.5387 5.29836 18.5387ZM12.4958 10.9071H11.3564C11.1908 10.9071 11.0566 11.0421 11.0566 11.2087V18.2371C11.0566 18.4037 11.1908 18.5387 11.3564 18.5387H12.4958C12.6614 18.5387 12.7956 18.4037 12.7956 18.2371V11.2087C12.7956 11.0421 12.6614 10.9071 12.4958 10.9071ZM20.5336 18.2371V11.2087C20.5336 11.0428 20.3987 10.9071 20.2187 10.9071H19.0941C18.9291 10.9071 18.7792 11.0428 18.7792 11.2087V15.3714L15.5852 11.0428C15.5852 11.0327 15.5802 11.0227 15.5702 11.0126L15.5402 10.9825L15.5252 10.9674H15.5102C15.5102 10.9573 15.5052 10.9523 15.4952 10.9523V10.9372H15.4652L15.4502 10.9221H15.4352C15.4252 10.9221 15.4202 10.9171 15.4202 10.9071H15.4052H15.3902H15.3752H15.3603H15.3453H15.3303H14.2056C14.0407 10.9071 13.8907 11.0428 13.8907 11.2087V18.2371C13.8907 18.403 14.0407 18.5387 14.2056 18.5387H15.3303C15.5102 18.5387 15.6452 18.403 15.6452 18.2371V14.0593L18.8392 18.403C18.8592 18.4331 18.8841 18.4583 18.9141 18.4784H18.9291C18.9291 18.4884 18.9341 18.4935 18.9441 18.4935L18.9591 18.5086H18.9741H18.9891V18.5236H19.0191C19.0391 18.5337 19.0641 18.5387 19.0941 18.5387H20.2187C20.3987 18.5387 20.5336 18.403 20.5336 18.2371Z" fill="#797271"/>
</g>
<defs>
<clipPath id="clip0_2013_163">
<rect width="32" height="32" fill="white" transform="translate(0 0.904297)"/>
</clipPath>
</defs>
</svg>
