<svg width="332" height="115" viewBox="0 0 332 115" fill="none" xmlns="http://www.w3.org/2000/svg">
<g clip-path="url(#clip0_0_690)" filter="url(#filter0_d_0_690)">
<path d="M78.2298 39.511V96.6918H70.6514V86.8956C67.4452 90.6689 63.8018 93.4264 59.794 95.3856C55.7862 97.2723 51.4141 98.2156 46.6048 98.2156C38.152 98.2156 30.9381 95.313 24.89 89.4353C18.9147 83.5576 15.9271 76.4463 15.9271 68.0288C15.9271 59.6114 18.9147 52.7903 24.9628 46.9126C31.0109 41.0349 38.2978 38.1323 46.7505 38.1323C51.6327 38.1323 56.0777 39.1482 60.0855 41.1075C64.0933 43.1393 67.5181 46.1144 70.5786 50.1054V39.5836H78.1569L78.2298 39.511ZM47.5521 45.1711C43.2528 45.1711 39.3179 46.187 35.6745 48.2188C32.0311 50.2506 29.1892 53.0806 27.0031 56.7088C24.89 60.337 23.7969 64.1829 23.7969 68.2465C23.7969 72.3101 24.89 76.0835 27.0031 79.7843C29.1892 83.485 32.0311 86.3151 35.6745 88.3469C39.3179 90.3787 43.2528 91.3946 47.4064 91.3946C51.5599 91.3946 55.5676 90.3787 59.3568 88.3469C63.146 86.3151 66.0607 83.5576 68.0282 80.0745C70.0685 76.5914 71.0887 72.7455 71.0887 68.3917C71.0887 61.7883 68.8297 56.2734 64.239 51.7744C59.6483 47.348 54.1103 45.0985 47.4064 45.0985L47.5521 45.1711Z" fill="white"/>
<path d="M98.2686 16C100.017 16 101.548 16.5805 102.786 17.8141C104.025 18.9751 104.681 20.4264 104.681 22.0954C104.681 23.7644 104.025 25.1431 102.786 26.3767C101.548 27.5377 100.017 28.1908 98.2686 28.1908C96.5198 28.1908 95.0624 27.6103 93.8236 26.3767C92.5849 25.2157 91.9291 23.7644 91.9291 22.0954C91.9291 20.4264 92.5849 18.9751 93.8236 17.8141C95.0624 16.6531 96.5198 16 98.2686 16ZM94.4066 39.5109H102.131V96.6916H94.4066V39.5109Z" fill="white"/>
<path d="M119.692 39.5107H127.562V47.8556C129.894 44.5902 132.371 42.123 134.994 40.454C137.618 38.8576 140.314 37.9868 143.156 37.9868C145.269 37.9868 147.528 38.6399 150.005 39.9461L145.998 46.114C144.394 45.4609 143.01 45.0981 141.917 45.0981C139.367 45.0981 136.889 46.114 134.484 48.1458C132.08 50.1776 130.258 53.2979 129.019 57.5066C128.072 60.772 127.562 67.3754 127.562 77.2441V96.5463H119.692V39.5107Z" fill="white"/>
<path d="M159.843 17.4512H167.567V96.6915H159.843V17.4512Z" fill="white"/>
<path d="M180.97 39.3465H188.694V66.0502C188.694 72.581 189.059 77.08 189.787 79.4746C190.88 82.9577 192.994 85.7151 196.054 87.7469C199.187 89.7787 202.831 90.7946 207.13 90.7946C211.429 90.7946 215.073 89.7787 218.06 87.8195C221.048 85.8603 223.088 83.2479 224.254 79.9825C225.056 77.8056 225.42 73.0889 225.42 65.9776V39.2739H233.29V67.3563C233.29 75.2659 232.343 81.1436 230.375 85.1346C228.481 89.1257 225.566 92.2459 221.704 94.4954C217.842 96.7449 212.96 97.9059 207.203 97.9059C201.446 97.9059 196.491 96.7449 192.629 94.4954C188.694 92.2459 185.78 89.0531 183.885 85.062C181.99 80.9984 180.97 74.903 180.97 66.7758V39.2739V39.3465Z" fill="white"/>
<path d="M246.265 39.5107H254.426L274.465 81.1627L294.285 39.5107H302.519L275.121 96.6915H273.663L246.119 39.5107H246.265Z" fill="white"/>
<path d="M309.223 85.1538C311.118 85.1538 312.721 85.8069 314.033 87.0405C315.344 88.2741 316 89.8705 316 91.6846C316 93.4987 315.344 95.0226 314.033 96.2562C312.721 97.5623 311.118 98.1428 309.223 98.1428C307.329 98.1428 305.726 97.4898 304.414 96.2562C303.102 94.95 302.446 93.4262 302.446 91.6846C302.446 89.9431 303.102 88.3466 304.414 87.0405C305.726 85.8069 307.329 85.1538 309.223 85.1538Z" fill="white"/>
</g>
<defs>
<filter id="filter0_d_0_690" x="0" y="0" width="332" height="114.143" filterUnits="userSpaceOnUse" color-interpolation-filters="sRGB">
<feFlood flood-opacity="0" result="BackgroundImageFix"/>
<feColorMatrix in="SourceAlpha" type="matrix" values="0 0 0 0 0 0 0 0 0 0 0 0 0 0 0 0 0 0 127 0" result="hardAlpha"/>
<feOffset/>
<feGaussianBlur stdDeviation="8"/>
<feComposite in2="hardAlpha" operator="out"/>
<feColorMatrix type="matrix" values="0 0 0 0 0 0 0 0 0 0 0 0 0 0 0 0 0 0 0.25 0"/>
<feBlend mode="normal" in2="BackgroundImageFix" result="effect1_dropShadow_0_690"/>
<feBlend mode="normal" in="SourceGraphic" in2="effect1_dropShadow_0_690" result="shape"/>
</filter>
<clipPath id="clip0_0_690">
<rect width="300" height="82.1429" fill="white" transform="translate(16 16)"/>
</clipPath>
</defs>
</svg>
