<svg width="56" height="56" viewBox="0 0 56 56" fill="none" xmlns="http://www.w3.org/2000/svg">
<g id="Group">
<path id="Vector" fill-rule="evenodd" clip-rule="evenodd" d="M27.9362 9.15445C26.3599 8.93874 24.8749 7.4537 24.6592 5.87741C24.4642 4.4546 23.8213 3.08572 22.7262 1.99475C20.0589 -0.6725 15.7241 -0.664209 13.0444 2.01549C10.3647 4.69519 10.3564 9.03 13.0236 11.6973C14.1146 12.7882 15.4876 13.4312 16.9105 13.6303C18.4867 13.846 19.9718 15.331 20.1875 16.9073C20.3825 18.3301 21.0254 19.699 22.1205 20.79C24.7878 23.4572 29.1226 23.4489 31.8023 20.7692C34.482 18.0895 34.4903 13.7547 31.823 11.0875C30.7321 9.99652 29.359 9.35356 27.9362 9.15445Z" fill="#E396A1"/>
<path id="Vector_2" fill-rule="evenodd" clip-rule="evenodd" d="M38.9722 42.3693C37.3959 42.1536 35.9109 40.6685 35.6952 39.0923C35.5002 37.6694 34.8573 36.3006 33.7622 35.2096C31.0949 32.5423 26.7601 32.5506 24.0804 35.2303C21.4007 37.91 21.3924 42.2448 24.0597 44.9121C25.1506 46.0031 26.5237 46.646 27.9465 46.8451C29.5228 47.0608 31.0078 48.5459 31.2235 50.1222C31.4185 51.545 32.0614 52.9139 33.1565 54.0048C35.8238 56.6721 40.1586 56.6638 42.8383 53.9841C45.518 51.3044 45.5263 46.9696 42.8591 44.3023C41.7681 43.2114 40.3951 42.5684 38.9722 42.3693Z" fill="#B2CE7C"/>
<path id="Vector_3" fill-rule="evenodd" clip-rule="evenodd" d="M46.8403 28.1065C47.056 26.5302 48.541 25.0452 50.1173 24.8295C51.5401 24.6345 52.909 23.9916 54.0041 22.8965C56.6714 20.2292 56.6631 15.8944 53.9834 13.2147C51.3037 10.535 46.9688 10.5267 44.3016 13.194C43.2106 14.2849 42.5677 15.658 42.3686 17.0766C42.1529 18.6529 40.6678 20.138 39.0915 20.3537C37.6687 20.5486 36.2998 21.1916 35.2047 22.2867C32.5375 24.9539 32.5458 29.2888 35.2255 31.9685C37.9052 34.6482 42.24 34.6565 44.9072 31.9892C45.9982 30.8982 46.6411 29.5252 46.8403 28.1065Z" fill="#F2C56B"/>
<path id="Vector_4" fill-rule="evenodd" clip-rule="evenodd" d="M13.6303 39.1495C13.846 37.5732 15.331 36.0882 16.9073 35.8725C18.3301 35.6775 19.699 35.0345 20.7941 33.9394C23.4614 31.2722 23.4531 26.9374 20.7734 24.2577C18.0937 21.578 13.7589 21.5697 11.0916 24.2369C10.0007 25.3279 9.3577 26.7009 9.15859 28.1196C8.94289 29.6959 7.45786 31.1809 5.88156 31.3966C4.45875 31.5916 3.08986 32.2346 1.99475 33.3297C-0.672503 35.9969 -0.664207 40.3317 2.01549 43.0114C4.69519 45.6911 9.03 45.6994 11.6973 43.0322C12.7882 41.9412 13.4312 40.5682 13.6303 39.1495Z" fill="#8ECCED"/>
</g>
</svg>
