<svg width="56" height="41" viewBox="0 0 56 41" fill="none" xmlns="http://www.w3.org/2000/svg">
<g id="_&#227;&#131;&#172;&#227;&#130;&#164;&#227;&#131;&#164;&#227;&#131;&#188;_1" clip-path="url(#clip0_0_906)">
<path id="Vector" d="M13.8 23.1583C16.2 23.2083 18.42 24.4083 19.92 26.5083C21.75 29.0883 24.77 30.6283 28 30.6283C31.23 30.6283 34.25 29.0783 36.08 26.4783C37.58 24.3783 39.8 23.1783 42.2 23.1283C40.4 20.0783 33.2 18.1283 28 18.1283C22.8 18.1283 15.6 20.0783 13.8 23.1483V23.1583Z" fill="#FE9BA9"/>
<path id="Vector_2" d="M8 23.1383C12.15 23.1383 15.5 19.7883 15.5 15.6383C15.5 11.4883 12.15 8.13831 8 8.13831C3.85 8.13831 0.5 11.4883 0.5 15.6383C0.5 19.7883 3.85 23.1383 8 23.1383Z" fill="#797271"/>
<path id="Vector_3" d="M48 23.1383C52.15 23.1383 55.5 19.7883 55.5 15.6383C55.5 11.4883 52.15 8.13831 48 8.13831C43.85 8.13831 40.5 11.4883 40.5 15.6383C40.5 19.7883 43.85 23.1383 48 23.1383Z" fill="#797271"/>
<path id="Vector_4" d="M28 15.6383C32.15 15.6383 35.5 12.2883 35.5 8.13831C35.5 3.98831 32.15 0.638306 28 0.638306C23.85 0.638306 20.5 3.98831 20.5 8.13831C20.5 12.2883 23.85 15.6383 28 15.6383Z" fill="#FE9BA9"/>
<path id="Vector_5" d="M50.5 26.1383H42.33C40.41 26.1383 38.95 27.2583 38.13 28.4383C38.03 28.5883 34.73 33.6383 28.01 33.6383C24.43 33.6383 20.43 32.0383 17.89 28.4383C16.91 27.0583 15.39 26.1383 13.69 26.1383H5.5C2.75 26.1383 0.5 28.3883 0.5 31.1383V41.1383H18V35.4883C20.88 37.4883 24.35 38.6383 28 38.6383C31.65 38.6383 35.12 37.4883 38 35.4883V41.1383H55.5V31.1383C55.5 28.3883 53.25 26.1383 50.5 26.1383Z" fill="#797271"/>
</g>
<defs>
<clipPath id="clip0_0_906">
<rect width="55" height="40" fill="white" transform="translate(0.5 0.638306)"/>
</clipPath>
</defs>
</svg>
