<svg width="25" height="24" viewBox="0 0 25 24" fill="none" xmlns="http://www.w3.org/2000/svg">
<g id="Link" clip-path="url(#clip0_0_1006)">
<path id="Subtract" fill-rule="evenodd" clip-rule="evenodd" d="M21.9246 16.3252C19.4054 19.2436 13.7821 22.7842 12.5 23.3272C11.2734 23.8466 11.3953 23.0615 11.4476 22.7251L11.4541 22.6824C11.4766 22.5617 11.5328 22.2186 11.6228 21.653C11.6678 21.3363 11.7128 20.8612 11.589 20.5558C11.4541 20.2164 10.9255 20.0467 10.5319 19.9562C4.76242 19.1984 0.5 15.1374 0.5 10.296C0.5 4.90028 5.87582 0.5 12.5 0.5C19.1129 0.5 24.5 4.90028 24.5 10.296C24.5 12.4565 23.6565 14.4022 21.9246 16.3252ZM20.3201 13.2259H16.9461C16.8224 13.2259 16.7212 13.1241 16.7212 12.9997V12.9884V7.72842C16.7212 7.60399 16.8224 7.50219 16.9461 7.50219H20.3201C20.4438 7.50219 20.545 7.60399 20.545 7.72842V8.58812C20.545 8.71255 20.4438 8.81435 20.3201 8.81435H18.0258V9.70798H20.3201C20.4438 9.70798 20.545 9.80979 20.545 9.93422V10.7939C20.545 10.9183 20.4438 11.0201 20.3201 11.0201H18.0258V11.9138H20.3201C20.4438 11.9138 20.545 12.0156 20.545 12.14V12.9997C20.545 13.1241 20.4438 13.2259 20.3201 13.2259ZM4.47377 13.2259H4.48502H7.84772C7.97143 13.2259 8.07265 13.1241 8.07265 12.9997V12.14C8.07265 12.0156 7.97143 11.9138 7.84772 11.9138H5.55344V7.72842C5.55344 7.60399 5.45222 7.50219 5.32851 7.50219H4.47377C4.35006 7.50219 4.24884 7.60399 4.24884 7.72842V12.9884V12.9997C4.24884 13.1241 4.35006 13.2259 4.47377 13.2259ZM9.87185 7.50219H9.0173C8.8931 7.50219 8.79242 7.60348 8.79242 7.72842V12.9997C8.79242 13.1247 8.8931 13.2259 9.0173 13.2259H9.87185C9.99605 13.2259 10.0967 13.1247 10.0967 12.9997V7.72842C10.0967 7.60348 9.99605 7.50219 9.87185 7.50219ZM15.9002 12.9997V7.72842C15.9002 7.60399 15.799 7.50219 15.664 7.50219H14.8206C14.6969 7.50219 14.5844 7.60399 14.5844 7.72842V10.8505L12.1889 7.60399C12.1889 7.59645 12.1851 7.58891 12.1776 7.58137L12.1551 7.55875L12.1439 7.54743H12.1327C12.1327 7.53989 12.1289 7.53612 12.1214 7.53612V7.52481H12.0989L12.0877 7.5135H12.0764C12.0689 7.5135 12.0652 7.50973 12.0652 7.50219H12.0539H12.0427H12.0314H12.0202H12.0089H11.9977H11.1542C11.0305 7.50219 10.918 7.60399 10.918 7.72842V12.9997C10.918 13.1241 11.0305 13.2259 11.1542 13.2259H11.9977C12.1327 13.2259 12.2339 13.1241 12.2339 12.9997V9.86634L14.6294 13.1241C14.6444 13.1468 14.6631 13.1656 14.6856 13.1807H14.6969C14.6969 13.1882 14.7006 13.192 14.7081 13.192L14.7193 13.2033H14.7306H14.7418V13.2146H14.7643C14.7793 13.2222 14.7981 13.2259 14.8206 13.2259H15.664C15.799 13.2259 15.9002 13.1241 15.9002 12.9997Z" fill="white"/>
</g>
<defs>
<clipPath id="clip0_0_1006">
<rect width="24" height="24" fill="white" transform="translate(0.5)"/>
</clipPath>
</defs>
</svg>
