<svg width="120" height="120" viewBox="0 0 120 120" fill="none" xmlns="http://www.w3.org/2000/svg">
<path d="M0 60C0 26.8629 26.8629 0 60 0C93.1371 0 120 26.8629 120 60C120 93.1371 93.1371 120 60 120C26.8629 120 0 93.1371 0 60Z" fill="white"/>
<g clip-path="url(#clip0_0_977)">
<path fill-rule="evenodd" clip-rule="evenodd" d="M26.7473 77.4574C26.5354 77.4392 26.3211 77.4307 26.1044 77.4307C21.9595 77.4307 18.6 80.7809 18.6 84.9144C18.6 89.0478 21.9595 92.3981 26.1044 92.3981C30.2492 92.3981 33.4918 89.1621 33.6063 85.1284H30.6023C30.4903 87.5095 28.5202 89.4053 26.1044 89.4053C23.6885 89.4053 21.6015 87.3952 21.6015 84.9144C21.6015 82.4336 23.6179 80.4246 26.1044 80.4246C26.3223 80.4246 26.5378 80.4404 26.7473 80.4696V77.4574Z" fill="#797271"/>
<path fill-rule="evenodd" clip-rule="evenodd" d="M43.3134 89.3581C45.4771 89.3581 47.2318 87.6081 47.2318 85.4496C47.2318 83.2911 45.4771 81.5412 43.3134 81.5412C41.1496 81.5412 39.395 83.2911 39.395 85.4496C39.395 87.6081 41.1496 89.3581 43.3134 89.3581ZM36.346 85.4496C36.346 89.2875 39.4656 92.3982 43.3134 92.3982C47.1611 92.3982 50.2807 89.2875 50.2807 85.4496C50.2807 81.6117 47.1611 78.501 43.3134 78.501C39.4656 78.501 36.346 81.6117 36.346 85.4496Z" fill="#797271"/>
<path fill-rule="evenodd" clip-rule="evenodd" d="M59.9696 89.3713C58.1285 88.9834 56.7538 87.4548 56.7538 85.6283L56.705 73.7922H53.4892L53.5379 85.6283C53.5379 89.1074 56.3434 91.9774 59.9696 92.3981V89.3713Z" fill="#797271"/>
<path fill-rule="evenodd" clip-rule="evenodd" d="M85.5718 89.3713C83.8841 88.9834 82.6239 87.4548 82.6239 85.6283L82.5752 73.7922H79.6273L79.676 85.6283C79.676 89.1074 82.2476 91.9774 85.5718 92.3981V89.3713Z" fill="#797271"/>
<path fill-rule="evenodd" clip-rule="evenodd" d="M73.6352 91.03V91.8642H76.3153V83.8455H73.3844V85.5565C73.3844 87.6822 71.6967 89.4053 69.6158 89.4053C67.5348 89.4053 65.8471 87.6822 65.8471 85.5565V83.8455H62.9163V85.5565C62.9163 89.3348 65.9153 92.3981 69.6158 92.3981C71.1244 92.3981 72.5162 91.8886 73.6352 91.03Z" fill="#797271"/>
<path fill-rule="evenodd" clip-rule="evenodd" d="M98.7212 91.03V91.8642H101.4V83.8455H98.4691V85.5565C98.4691 87.6822 96.7815 89.4053 94.7005 89.4053C92.6195 89.4053 90.9331 87.6822 90.9331 85.5565V83.8455H88.0022V85.5565C88.0022 89.3348 91.0013 92.3981 94.7017 92.3981C96.2104 92.3981 97.6009 91.8886 98.7212 91.03Z" fill="#797271"/>
<path fill-rule="evenodd" clip-rule="evenodd" d="M59.9489 31.2609C58.7495 31.0955 57.6195 29.9682 57.4539 28.7692C57.3053 27.6881 56.8146 26.6471 55.9842 25.8166C53.9532 23.7882 50.6546 23.7955 48.6162 25.8312C46.5779 27.8669 46.5706 31.1624 48.6016 33.1896C49.432 34.019 50.4756 34.509 51.5581 34.6574C52.7574 34.8228 53.8874 35.9501 54.053 37.1491C54.2016 38.2302 54.6923 39.2712 55.5227 40.1018C57.5538 42.1302 60.8524 42.1229 62.8907 40.0872C64.929 38.0515 64.9363 34.7559 62.9053 32.7287C62.0749 31.8994 61.0313 31.4093 59.9489 31.2609Z" fill="#E396A1"/>
<path fill-rule="evenodd" clip-rule="evenodd" d="M68.347 56.5041C67.1476 56.3387 66.0176 55.2114 65.852 54.0123C65.7035 52.9313 65.2128 51.8903 64.3823 51.0597C62.3513 49.0313 59.0527 49.0386 57.0143 51.0743C54.976 53.11 54.9687 56.4056 56.9997 58.4328C57.8302 59.2621 58.8737 59.7522 59.9562 59.9006C61.1556 60.066 62.2855 61.1932 62.4511 62.3923C62.5997 63.4734 63.0904 64.5143 63.9208 65.3449C65.9519 67.3733 69.2505 67.366 71.2888 65.3303C73.3272 63.2946 73.3345 59.9991 71.3034 57.9719C70.473 57.1425 69.4295 56.6524 68.347 56.5041Z" fill="#B2CE7C"/>
<path fill-rule="evenodd" clip-rule="evenodd" d="M74.339 45.6665C74.5046 44.4674 75.6334 43.3401 76.834 43.1747C77.9165 43.0264 78.96 42.5363 79.7904 41.7069C81.8215 39.6785 81.8142 36.3842 79.7758 34.3485C77.7375 32.3128 74.4376 32.3055 72.4078 34.3339C71.5774 35.1633 71.0879 36.2054 70.9381 37.2865C70.7725 38.4856 69.6438 39.6129 68.4432 39.7782C67.3607 39.9266 66.3172 40.4167 65.4867 41.246C63.4557 43.2745 63.463 46.5688 65.5013 48.6045C67.5397 50.6402 70.8395 50.6475 72.8693 48.6191C73.6998 47.7897 74.1892 46.7476 74.339 45.6665Z" fill="#F2C56B"/>
<path fill-rule="evenodd" clip-rule="evenodd" d="M49.0619 54.0573C49.2275 52.8583 50.3562 51.731 51.5568 51.5656C52.6393 51.4172 53.6829 50.9272 54.5133 50.0978C56.5443 48.0694 56.537 44.7751 54.4987 42.7394C52.4603 40.7037 49.1605 40.6964 47.1307 42.7248C46.3003 43.5541 45.8108 44.5963 45.661 45.6774C45.4954 46.8764 44.3666 48.0037 43.166 48.1691C42.0835 48.3175 41.04 48.8076 40.2096 49.6369C38.1785 51.6653 38.1859 54.9597 40.2242 56.9954C42.2625 59.0311 45.5624 59.0384 47.5922 57.01C48.4226 56.1806 48.9121 55.1384 49.0619 54.0573Z" fill="#8ECCED"/>
</g>
<defs>
<clipPath id="clip0_0_977">
<rect width="82.8" height="68.1" fill="white" transform="translate(18.6 24.3)"/>
</clipPath>
</defs>
</svg>
