<svg width="50" height="40" viewBox="0 0 50 40" fill="none" xmlns="http://www.w3.org/2000/svg">
<g id="_&#227;&#131;&#172;&#227;&#130;&#164;&#227;&#131;&#164;&#227;&#131;&#188;_1" clip-path="url(#clip0_0_950)">
<path id="Vector" d="M40 17.5V22.5H50V17.5H40Z" fill="#FE9BA9"/>
<path id="Vector_2" d="M35 34.03C37.4 35.8 40.53 38.15 43 40C44 38.67 45 37.33 46 36C43.53 34.15 40.4 31.8 38 30C37 31.35 36 32.7 35 34.03Z" fill="#FE9BA9"/>
<path id="Vector_3" d="M46 4C45 2.67 44 1.33 43 0C40.53 1.85 37.4 4.2 35 6C36 7.32 37 8.68 38 10C40.4 8.2 43.53 5.88 46 4Z" fill="#FE9BA9"/>
<path id="Vector_4" d="M5 12.5C2.25 12.5 0 14.75 0 17.5V22.5C0 25.25 2.25 27.5 5 27.5H7.5V37.5H12.5V27.5H15L27.5 35V5L15 12.5H5ZM17.58 16.77L22.5 13.82V26.17L17.58 23.22L16.38 22.49H5V17.49H16.38L17.58 16.76V16.77Z" fill="#787271"/>
<path id="Vector_5" d="M33.75 20.0001C33.75 16.6701 32.3 13.6801 30 11.6201V28.3501C32.3 26.3301 33.75 23.3301 33.75 20.0001Z" fill="#787271"/>
</g>
<defs>
<clipPath id="clip0_0_950">
<rect width="50" height="40" fill="white"/>
</clipPath>
</defs>
</svg>
